<svg width="40.000000" height="40.000000" viewBox="0 0 40 40" fill="none" xmlns="http://www.w3.org/2000/svg" xmlns:xlink="http://www.w3.org/1999/xlink">
	<desc>
			Created with Pixso.
	</desc>
	<defs>
		<clipPath id="clip8_20">
			<rect width="14.400001" height="14.399999" transform="translate(13.000000 13.000000)" fill="white" fill-opacity="0"/>
		</clipPath>
	</defs>
	<circle cx="20.000000" cy="20.000000" r="20.000000" fill="#89C1D9" fill-opacity="1.000000"/>
	<rect width="14.400001" height="14.399999" transform="translate(13.000000 13.000000)" fill="#FFFFFF" fill-opacity="0"/>
	<g clip-path="url(#clip8_20)">
		<path d="M20.1793 18.9391C20.1793 19.0903 20.3022 19.2091 20.4525 19.2091C20.7638 19.2091 21.015 19.4602 21.015 19.7653C21.015 19.9138 21.1379 20.0353 21.2881 20.0353C21.4384 20.0353 21.5612 19.9138 21.5612 19.7653C21.5612 19.1605 21.0641 18.6691 20.4525 18.6691C20.3022 18.6691 20.1793 18.7906 20.1793 18.9391ZM24.6254 20.0353C24.7784 20.0353 24.8986 19.9138 24.8986 19.7653C24.8986 17.3407 22.9049 15.3697 20.4525 15.3697C20.3022 15.3697 20.1793 15.4911 20.1793 15.6397C20.1793 15.7882 20.3022 15.9097 20.4525 15.9097C22.6045 15.9097 24.3524 17.6404 24.3524 19.7653C24.3524 19.9138 24.4752 20.0353 24.6254 20.0353Z" fill="#0D0EA4" fill-opacity="1.000000" fill-rule="evenodd"/>
		<path d="M22.6837 19.7653C22.6837 19.9138 22.8066 20.0353 22.9568 20.0353C23.107 20.0353 23.2299 19.9138 23.2299 19.7653C23.2299 18.2506 21.9845 17.0194 20.4524 17.0194C20.3022 17.0194 20.1793 17.1409 20.1793 17.2894C20.1793 17.4406 20.3022 17.5594 20.4524 17.5594C21.6841 17.5594 22.6837 18.5503 22.6837 19.7653ZM20.4524 13.72C20.3022 13.72 20.1793 13.8415 20.1793 13.99C20.1793 14.1385 20.3022 14.2599 20.4524 14.2599C23.5248 14.2599 26.0237 16.7305 26.0237 19.7653C26.0237 19.9138 26.1439 20.0353 26.2968 20.0353C26.447 20.0353 26.5699 19.9138 26.5699 19.7653C26.5699 16.4308 23.8253 13.72 20.4524 13.72ZM23.1207 22.6111L22.7629 22.8028C22.1593 23.1295 21.6896 24.025 20.9448 23.35L19 21.4L17.3199 19.7653C16.4758 18.6988 17.421 18.4449 17.7514 17.8456L17.9453 17.4946C18.1638 17.095 18.243 16.6468 18.1775 16.1985C18.1147 15.7504 17.9099 15.3427 17.5821 15.0187C17.1834 14.6245 16.6536 14.4085 16.0883 14.4085C15.5229 14.4085 14.9904 14.6245 14.5916 15.0187L14.4523 15.1591C13.715 15.8881 13.6303 17.1436 14.212 18.6988C14.7609 20.1838 15.867 21.793 17.3199 23.2294C19.5348 25.4191 22.0009 26.68 23.7706 26.68C24.4698 26.68 25.0624 26.4828 25.483 26.0671L25.625 25.9267C26.021 25.5352 26.2422 25.0114 26.2449 24.4471C26.2422 23.8963 26.0156 23.3563 25.625 22.9702C24.9668 22.3195 23.9372 22.1736 23.1207 22.6111Z" fill="#0D0EA4" fill-opacity="1.000000" fill-rule="evenodd"/>
	</g>
</svg>
