<svg width="42.000000" height="40.000000" viewBox="0 0 42 40" fill="none" xmlns="http://www.w3.org/2000/svg" xmlns:xlink="http://www.w3.org/1999/xlink">
	<desc>
			Created with Pixso.
	</desc>
	<defs>
		<clipPath id="clip8_4">
			<rect width="14.400001" height="14.399999" transform="translate(14.799988 12.799988)" fill="white" fill-opacity="0"/>
		</clipPath>
	</defs>
	<circle cx="20.000000" cy="20.000000" r="20.000000" fill="#9FA0F7" fill-opacity="1.000000"/>
	<rect width="14.400001" height="14.399999" transform="translate(14.799988 12.799988)" fill="#FFFFFF" fill-opacity="0"/>
	<g clip-path="url(#clip8_4)">
		<path d="M21.9793 18.7391C21.9793 18.8903 22.1022 19.0092 22.2524 19.0092C22.5638 19.0092 22.815 19.2603 22.815 19.5653C22.815 19.7138 22.9379 19.8353 23.0881 19.8353C23.2383 19.8353 23.3612 19.7138 23.3612 19.5653C23.3612 18.9605 22.8642 18.4691 22.2524 18.4691C22.1022 18.4691 21.9793 18.5906 21.9793 18.7391ZM26.4254 19.8353C26.5784 19.8353 26.6985 19.7138 26.6985 19.5653C26.6985 17.1407 24.7049 15.1697 22.2524 15.1697C22.1022 15.1697 21.9793 15.2912 21.9793 15.4398C21.9793 15.5883 22.1022 15.7097 22.2524 15.7097C24.4045 15.7097 26.1523 17.4404 26.1523 19.5653C26.1523 19.7138 26.2752 19.8353 26.4254 19.8353Z" fill="#0D0EA4" fill-opacity="1.000000" fill-rule="evenodd"/>
		<path d="M23.8536 20.0453C23.8536 20.1938 23.9766 20.3153 24.1268 20.3153C24.277 20.3153 24.3999 20.1938 24.3999 20.0453C24.3999 18.5306 23.1545 17.2994 21.6224 17.2994C21.4722 17.2994 21.3493 17.4209 21.3493 17.5694C21.3493 17.7206 21.4722 17.8394 21.6224 17.8394C22.8541 17.8394 23.8536 18.8303 23.8536 20.0453ZM21.6224 14C21.4722 14 21.3493 14.1215 21.3493 14.27C21.3493 14.4185 21.4722 14.54 21.6224 14.54C24.6948 14.54 27.1937 17.0105 27.1937 20.0453C27.1937 20.1938 27.3139 20.3153 27.4668 20.3153C27.617 20.3153 27.7399 20.1938 27.7399 20.0453C27.7399 16.7108 24.9952 14 21.6224 14ZM24.2906 22.8911L23.9329 23.0828C23.3293 23.4095 22.8596 24.305 22.1148 23.63L20.17 21.68L18.4899 20.0453C17.6458 18.9788 18.591 18.725 18.9214 18.1256L19.1153 17.7746C19.3338 17.375 19.413 16.9268 19.3474 16.4786C19.2846 16.0304 19.0798 15.6227 18.7521 15.2987C18.3534 14.9045 17.8235 14.6885 17.2582 14.6885C16.6929 14.6885 16.1603 14.9045 15.7616 15.2987L15.6223 15.4391C14.8849 16.1681 14.8003 17.4236 15.382 18.9788C15.9309 20.4638 17.037 22.073 18.4899 23.5094C20.7048 25.6991 23.1709 26.96 24.9406 26.96C25.6398 26.96 26.2324 26.7629 26.653 26.3471L26.795 26.2067C27.191 25.8152 27.4122 25.2914 27.4149 24.7271C27.4122 24.1763 27.1855 23.6363 26.795 23.2502C26.1368 22.5995 25.1072 22.4537 24.2906 22.8911Z" fill="#0D0EA4" fill-opacity="1.000000" fill-rule="evenodd"/>
	</g>
</svg>
