<svg width="50" height="50" viewBox="0 0 50 50" fill="none" xmlns="http://www.w3.org/2000/svg">
<path d="M4.77406 12.9006C4.0957 12.4948 3.87136 11.6132 4.31532 10.9591C7.00275 6.99996 10.7769 3.88619 15.1972 2.00203C20.0574 -0.0696182 25.449 -0.548256 30.5981 0.634815C35.7473 1.81789 40.3893 4.60184 43.8578 8.58711C47.3264 12.5724 49.4432 17.5541 49.9045 22.8172C50.3658 28.0803 49.1478 33.3543 46.4254 37.8822C43.703 42.4101 39.6161 45.9591 34.7512 48.0198C29.8864 50.0806 24.4937 50.5471 19.3472 49.3525C14.6665 48.266 10.4083 45.8562 7.07314 42.4249C6.52217 41.8581 6.58973 40.9509 7.18717 40.4333C7.7846 39.9156 8.68538 39.984 9.24052 40.5468C12.1764 43.523 15.9032 45.6144 19.9945 46.564C24.5517 47.6219 29.3269 47.2087 33.6347 45.384C37.9425 43.5592 41.5614 40.4166 43.9721 36.4071C46.3828 32.3977 47.4613 27.7276 47.0529 23.0671C46.6444 18.4067 44.7699 13.9954 41.6985 10.4664C38.6271 6.9375 34.5167 4.47233 29.9571 3.42472C25.3976 2.37712 20.6234 2.80095 16.3197 4.63539C12.4559 6.28228 9.14981 8.99009 6.77636 12.4316C6.32757 13.0823 5.45243 13.3064 4.77406 12.9006Z" fill="#CDCDCD"/>
<path fill-rule="evenodd" clip-rule="evenodd" d="M5.50152 18.2525C4.7565 18.2891 4.18327 18.9227 4.22118 19.6677C4.25908 20.4126 4.89375 20.9868 5.63876 20.9502L13.7993 20.5488C13.1819 20.7735 12.7653 21.3889 12.8213 22.0761C12.8885 22.9018 13.6125 23.5186 14.4385 23.4536L17.4126 23.2195L10.8416 24.8058C10.0285 25.0021 9.5336 25.8191 9.73627 26.6306C9.923 27.3784 10.6377 27.8623 11.3877 27.7778L11.3564 27.7854H18.0323L18.0307 27.8405L3.11907 29.959C2.22876 30.0855 1.61302 30.9092 1.74377 31.7989C1.87453 32.6886 2.70226 33.3073 3.59257 33.1808L36.0169 28.5744C36.7368 28.4721 37.2772 27.914 37.3885 27.2336C37.4096 27.1343 37.422 27.0317 37.4251 26.9267C37.4516 26.0151 36.734 25.2554 35.8224 25.2299L24.3467 24.9078L34.3769 22.6796C35.3075 22.4729 35.8892 21.5534 35.6771 20.6243L35.6745 20.6129C35.6901 20.5039 35.6939 20.3914 35.6846 20.2769C35.6174 19.4512 34.8934 18.8345 34.0674 18.8994L28.7189 19.3203C28.8982 19.0782 28.9977 18.7746 28.9812 18.45C28.9433 17.705 28.3086 17.1308 27.5636 17.1674L5.50152 18.2525Z" fill="url(#paint0_linear_1_50)"/>
<path d="M33.0586 6.60265H25.641C25.641 6.60265 25.8547 8.94359 25.641 9.87396C25.4274 10.8043 25.1387 11.0812 24.8169 11.8548H23.9927V14.946H26.1905V13.4454H31.8681V14.946H34.0049V11.8548H33.0586V6.60265Z" fill="#D4D4D4"/>
<path d="M30.464 8.10325H28.2356C28.2356 8.10325 28.2662 9.09365 28.1135 9.84395C27.9609 10.5942 27.7973 10.9963 27.5946 11.7347H30.464V8.10325Z" fill="#0D0EA4"/>
<path d="M15.1404 8.65189V6.60265H23.4432V8.65189H20.6858V14.946H17.9591V8.65189H15.1404Z" fill="#D4D4D4"/>
<path d="M23.1697 36.03H25.1959C25.607 36.03 25.9403 36.3633 25.9403 36.7744C25.9403 37.1855 25.607 37.5188 25.1959 37.5188H23.1697V36.03Z" fill="#D4D4D4"/>
<path d="M23.1697 37.5188H25.1939C25.6944 37.5188 26.1001 37.9246 26.1001 38.4251C26.1001 38.9256 25.6944 39.3313 25.1939 39.3313H23.1697V37.5188Z" fill="#D4D4D4"/>
<path d="M24.3907 36.6302H24.8522C24.9682 36.6302 25.0623 36.7243 25.0623 36.8403C25.0623 36.9563 24.9682 37.0504 24.8522 37.0504H24.3907V36.6302Z" fill="#0D0EA4"/>
<path d="M24.3907 38.0108H24.7922C24.9414 38.0108 25.0623 38.1317 25.0623 38.2809C25.0623 38.4301 24.9414 38.551 24.7922 38.551H24.3907V38.0108Z" fill="#0D0EA4"/>
<path d="M30.5568 36.03H27.2042C27.2042 36.03 27.2244 37.2305 27.199 37.9208C27.1969 37.9795 27.1074 38.1008 27.1074 38.1008L27.0159 38.1609L26.7411 38.1909H26.5275L26.4969 39.3313H27.779L28.2192 38.8211L28.3895 38.551L28.5267 37.9208V36.8703H29.0916V39.3313L30.5568 39.4814V36.03Z" fill="#D4D4D4"/>
<path d="M21.5519 36.03H19.9341L18.652 39.3313H20.1172L20.3004 38.6776H21.2161L21.3382 39.3313H22.8034L21.5519 36.03Z" fill="#D4D4D4"/>
<path d="M20.7583 36.7503L21.1548 37.8307H20.3617L20.7583 36.7503Z" fill="#0D0EA4"/>
<path d="M41.4237 36.03H39.989L38.9206 40.2917L40.1416 40.5318L40.2943 39.8415H41.149L41.3016 40.7719L42.6447 40.952L41.4237 36.03Z" fill="#D4D4D4"/>
<path d="M40.6911 36.8103L41.0612 38.521H40.321L40.6911 36.8103Z" fill="#0D0EA4"/>
<path d="M36.1429 36.06H34.7387V39.7815L36.1429 39.9616V38.2509L36.906 40.1116L38.3712 40.2617L37.3028 37.9207L38.5238 36.06H36.9976L36.1429 37.5606V36.06Z" fill="#D4D4D4"/>
<path d="M32.2051 36H30.9536V39.4814H31.9915L33.1514 37.6807V39.6315L34.3724 39.7815V36H33.1514L32.2051 37.6807V36Z" fill="#D4D4D4"/>
<path fill-rule="evenodd" clip-rule="evenodd" d="M17.0037 36.03H15.7216V39.3313L17.0037 39.2713V36.03ZM17.7558 36.03H17.0037V38.3109H17.7558C18.3856 38.3109 18.8962 37.8003 18.8962 37.1705C18.8962 36.5406 18.3856 36.03 17.7558 36.03Z" fill="#D4D4D4"/>
<path d="M14.8669 36H11.7228C11.7228 36 11.8144 37.5306 11.7228 37.9508C11.6313 38.3709 11.4176 38.3709 11.4176 38.3709H11.0208V39.7215L12.1807 39.6014V39.1212H14.1648V39.3914L15.3248 39.3013V38.3709H14.8669V36Z" fill="#D4D4D4"/>
<path d="M13.5238 36.5702H12.9664C12.9664 36.5702 12.9664 37.7054 12.847 37.9403C12.7275 38.1752 12.7275 38.1556 12.7275 38.1556L12.6081 38.3709H13.5238V36.5702Z" fill="#0D0EA4"/>
<path d="M16.9426 36.8704H17.6193C17.7851 36.8704 17.9194 37.0047 17.9194 37.1705C17.9194 37.3362 17.7851 37.4706 17.6193 37.4706H16.9426V36.8704Z" fill="#0D0EA4"/>
<path d="M8.27351 36.03H6.93041V40.3217L8.27351 40.0816L9.31136 38.1308V39.9015L10.6239 39.7515V36.03H9.31136L8.27351 38.0108V36.03Z" fill="#D4D4D4"/>
<path d="M4.00001 40.982V36.03H6.53359V37.3805H5.40416V40.6819L4.00001 40.982Z" fill="#D4D4D4"/>
<defs>
<linearGradient id="paint0_linear_1_50" x1="3.19074" y1="26.0124" x2="37.4087" y2="22.196" gradientUnits="userSpaceOnUse">
<stop stop-color="#D4D4D4"/>
<stop offset="1" stop-color="#1314FF"/>
</linearGradient>
</defs>
</svg>
