<svg width="51" height="50" viewBox="0 0 51 50" fill="none" xmlns="http://www.w3.org/2000/svg">
<path d="M4.84022 12.9078C4.14943 12.4992 3.92138 11.6028 4.37617 10.9414C7.09315 6.99068 10.9051 3.88338 15.3687 2.00203C20.2838 -0.0696182 25.7362 -0.548256 30.9434 0.634815C36.1507 1.81789 40.845 4.60184 44.3528 8.58711C47.8605 12.5724 50.0012 17.5541 50.4677 22.8172C50.9342 28.0803 49.7024 33.3543 46.9493 37.8822C44.1961 42.4101 40.0631 45.9591 35.1434 48.0198C30.2236 50.0806 24.7701 50.5471 19.5656 49.3525C14.8379 48.2674 10.5364 45.8622 7.16545 42.4376C6.60299 41.8662 6.67153 40.9445 7.28042 40.4229C7.87982 39.9093 8.77765 39.9776 9.33474 40.5367C12.3053 43.5182 16.078 45.6133 20.2201 46.564C24.8287 47.6219 29.6578 47.2087 34.0142 45.384C38.3706 43.5592 42.0304 40.4166 44.4683 36.4071C46.9062 32.3977 47.9969 27.7276 47.5838 23.0671C47.1708 18.4067 45.2751 13.9954 42.1691 10.4664C39.063 6.9375 34.9062 4.47233 30.2952 3.42472C25.6842 2.37712 20.8561 2.80095 16.5038 4.63539C12.5943 6.28321 9.24929 8.99315 6.84876 12.4374C6.39621 13.0867 5.52142 13.3108 4.84022 12.9078Z" fill="url(#paint0_linear_52_13)"/>
<path fill-rule="evenodd" clip-rule="evenodd" d="M5.54845 18.2532C4.80339 18.2894 4.23047 18.9227 4.2688 19.6677C4.30713 20.4126 4.94219 20.9872 5.68724 20.9509L13.944 20.5494C13.326 20.7731 12.9093 21.3885 12.9659 22.0761C13.0339 22.9018 13.7587 23.5191 14.5847 23.4549L17.6091 23.2195L10.9491 24.8093C10.135 25.0037 9.64116 25.819 9.8461 26.6305C10.0351 27.379 10.7536 27.8644 11.5055 27.7804L11.4846 27.7854H18.2358L18.2342 27.8405L3.13681 29.9614C2.24609 30.0866 1.63122 30.9092 1.76345 31.7989C1.89567 32.6886 2.72494 33.3084 3.61566 33.1833L36.4408 28.572C37.1644 28.4703 37.706 27.9083 37.8128 27.2239C37.8326 27.1276 37.8444 27.0283 37.8474 26.9267C37.8742 26.0151 37.1569 25.2557 36.2453 25.2304L24.6214 24.9079L34.7822 22.6758C35.7138 22.4712 36.2943 21.5537 36.0798 20.6249L36.0773 20.614C36.093 20.5047 36.0968 20.3918 36.0873 20.2769C36.0193 19.4512 35.2946 18.8339 34.4685 18.8982L29.0465 19.3201C29.2256 19.078 29.3249 18.7746 29.3082 18.45C29.2699 17.705 28.6348 17.1305 27.8898 17.1667L5.54845 18.2532Z" fill="url(#paint1_linear_52_13)"/>
<path d="M33.4317 6.60265H25.9304C25.9304 6.60265 26.1465 8.94359 25.9304 9.87396C25.7143 10.8043 25.4224 11.0812 25.0969 11.8548H24.2634V14.946H26.486V13.4454H32.2278V14.946H34.3886V11.8548H33.4317V6.60265Z" fill="#A8ADFC"/>
<path d="M30.8078 8.10324H28.5543C28.5543 8.10324 28.5851 9.09364 28.4308 9.84394C28.2765 10.5942 28.111 10.9963 27.906 11.7347H30.8078V8.10324Z" fill="#3436B4"/>
<path d="M15.3113 8.65189V6.60265H23.7078V8.65189H20.9193V14.946H18.1617V8.65189H15.3113Z" fill="#A8ADFC"/>
<path d="M21.4234 35.4742H23.4808C23.892 35.4742 24.2253 35.8075 24.2253 36.2186C24.2253 36.6297 23.892 36.963 23.4808 36.963H21.4234V35.4742Z" fill="#A8ADFC"/>
<path d="M21.4234 36.963H23.4807C23.9812 36.963 24.3869 37.3687 24.3869 37.8692C24.3869 38.3698 23.9812 38.7755 23.4807 38.7755H21.4234V36.963Z" fill="#A8ADFC"/>
<path d="M22.6582 36.0744H23.1272C23.2433 36.0744 23.3373 36.1684 23.3373 36.2845C23.3373 36.4005 23.2433 36.4946 23.1272 36.4946H22.6582V36.0744Z" fill="#3436B4"/>
<path d="M22.6582 37.455H23.0672C23.2164 37.455 23.3373 37.5759 23.3373 37.7251C23.3373 37.8742 23.2164 37.9952 23.0672 37.9952H22.6582V37.455Z" fill="#3436B4"/>
<path d="M28.8939 35.4742H25.5034C25.5034 35.4742 25.5239 36.6746 25.4982 37.3649C25.496 37.4236 25.4056 37.545 25.4056 37.545L25.313 37.605L25.0352 37.635H24.8191L24.7882 38.7755H26.0847L26.5299 38.2653L26.7021 37.9952L26.8409 37.3649V36.3145H27.4121V38.7755L28.8939 38.9255V35.4742Z" fill="#A8ADFC"/>
<path d="M19.7873 35.4742H18.1513L16.8547 38.7755H18.3365L18.5217 38.1218H19.4478L19.5713 38.7755H21.053L19.7873 35.4742Z" fill="#A8ADFC"/>
<path d="M18.9847 36.1945L19.3857 37.2749H18.5837L18.9847 36.1945Z" fill="#3436B4"/>
<path d="M39.8834 35.4742H38.4325L37.3521 39.7359L38.5869 39.976L38.7412 39.2857H39.6056L39.7599 40.2161L41.1182 40.3961L39.8834 35.4742Z" fill="#A8ADFC"/>
<path d="M39.1425 36.2545L39.5168 37.9652H38.7683L39.1425 36.2545Z" fill="#3436B4"/>
<path d="M34.543 35.5042H33.123V39.2257L34.543 39.4057V37.695L35.3147 39.5558L36.7964 39.7059L35.716 37.3649L36.9508 35.5042H35.4073L34.543 37.0048V35.5042Z" fill="#A8ADFC"/>
<path d="M30.5608 35.4442H29.2952V38.9256H30.3447L31.5178 37.1248V39.0756L32.7525 39.2257V35.4442H31.5178L30.5608 37.1248V35.4442Z" fill="#A8ADFC"/>
<path fill-rule="evenodd" clip-rule="evenodd" d="M15.1878 35.4742H13.8913V38.7755L15.1878 38.7155L15.1878 37.7551H15.9612C16.5911 37.7551 17.1017 37.2445 17.1017 36.6146C17.1017 35.9848 16.5911 35.4742 15.9612 35.4742H15.1878V35.4742Z" fill="#A8ADFC"/>
<path d="M13.0269 35.4442H9.84737C9.84737 35.4442 9.93997 36.9748 9.84737 37.3949C9.75476 37.8151 9.53867 37.8151 9.53867 37.8151H9.13737V39.1656L10.3104 39.0456V38.5654H12.3169V38.8355L13.49 38.7455V37.8151H13.0269V35.4442Z" fill="#A8ADFC"/>
<path d="M11.6687 36.0144H11.105C11.105 36.0144 11.105 37.1496 10.9842 37.3845C10.8634 37.6194 10.8634 37.5998 10.8634 37.5998L10.7426 37.8151H11.6687V36.0144Z" fill="#3436B4"/>
<path d="M15.1261 36.3145H15.8138C15.9795 36.3145 16.1139 36.4489 16.1139 36.6147C16.1139 36.7804 15.9795 36.9148 15.8138 36.9148H15.1261V36.3145Z" fill="#3436B4"/>
<path d="M6.35912 35.4742H5.00086V39.7659L6.35912 39.5258L7.40868 37.575V39.3457L8.73607 39.1957V35.4742H7.40868L6.35912 37.455V35.4742Z" fill="#A8ADFC"/>
<path d="M2.03739 40.4262V35.4742H4.59956V36.8247H3.45739V40.126L2.03739 40.4262Z" fill="#A8ADFC"/>
<defs>
<linearGradient id="paint0_linear_52_13" x1="6.26536" y1="26.2305" x2="52.0672" y2="23.5638" gradientUnits="userSpaceOnUse">
<stop stop-color="#C0C6FB"/>
<stop offset="1" stop-color="#282AFF"/>
</linearGradient>
<linearGradient id="paint1_linear_52_13" x1="3.22657" y1="26.0133" x2="37.8213" y2="22.1119" gradientUnits="userSpaceOnUse">
<stop stop-color="#C1C7FB"/>
<stop offset="1" stop-color="#1314FF"/>
</linearGradient>
</defs>
</svg>
